<svg width="1170" height="25" viewBox="0 0 1170 25" fill="none" xmlns="http://www.w3.org/2000/svg">
<path d="M2.562 15.754H5.978V17H0.966V7.116H2.562V15.754ZM10.3217 9.188C11.0217 9.188 11.6191 9.36067 12.1137 9.706C12.6084 10.0513 12.9584 10.5087 13.1637 11.078V9.286H14.7597V17H13.1637V15.208C12.9584 15.7773 12.6084 16.2347 12.1137 16.58C11.6191 16.9253 11.0217 17.098 10.3217 17.098C9.64972 17.098 9.04772 16.9393 8.51572 16.622C7.99305 16.3047 7.58239 15.8473 7.28372 15.25C6.98505 14.6527 6.83572 13.948 6.83572 13.136C6.83572 12.3333 6.98505 11.6333 7.28372 11.036C7.58239 10.4387 7.99305 9.98133 8.51572 9.664C9.04772 9.34667 9.64972 9.188 10.3217 9.188ZM10.8117 10.588C10.1024 10.588 9.53305 10.8167 9.10372 11.274C8.68372 11.722 8.47372 12.3427 8.47372 13.136C8.47372 13.9293 8.68372 14.5547 9.10372 15.012C9.53305 15.46 10.1024 15.684 10.8117 15.684C11.2597 15.684 11.6611 15.5813 12.0157 15.376C12.3704 15.1613 12.6504 14.8627 12.8557 14.48C13.0611 14.0973 13.1637 13.6493 13.1637 13.136C13.1637 12.632 13.0611 12.1887 12.8557 11.806C12.6504 11.414 12.3704 11.1153 12.0157 10.91C11.6611 10.6953 11.2597 10.588 10.8117 10.588ZM24.3662 7.018C25.5796 7.018 26.5876 7.326 27.3902 7.942C28.1929 8.558 28.7342 9.39333 29.0142 10.448H27.3202C27.0869 9.85067 26.7136 9.37933 26.2002 9.034C25.6962 8.67933 25.0756 8.502 24.3382 8.502C23.7502 8.502 23.2229 8.64667 22.7562 8.936C22.2989 9.22533 21.9349 9.64067 21.6642 10.182C21.4029 10.714 21.2722 11.3393 21.2722 12.058C21.2722 12.7673 21.4029 13.3927 21.6642 13.934C21.9349 14.466 22.2989 14.8767 22.7562 15.166C23.2229 15.4553 23.7502 15.6 24.3382 15.6C25.0756 15.6 25.6962 15.4273 26.2002 15.082C26.7136 14.7273 27.0869 14.256 27.3202 13.668H29.0142C28.7342 14.7227 28.1929 15.558 27.3902 16.174C26.5876 16.7807 25.5796 17.084 24.3662 17.084C23.4329 17.084 22.6069 16.874 21.8882 16.454C21.1696 16.0247 20.6142 15.432 20.2222 14.676C19.8302 13.9107 19.6342 13.038 19.6342 12.058C19.6342 11.078 19.8302 10.21 20.2222 9.454C20.6142 8.68867 21.1696 8.09133 21.8882 7.662C22.6069 7.23267 23.4329 7.018 24.3662 7.018ZM37.7186 9.286V17H36.1086V15.32C35.9126 15.8893 35.572 16.3327 35.0866 16.65C34.6013 16.958 34.0366 17.112 33.3926 17.112C32.4966 17.112 31.778 16.8227 31.2366 16.244C30.6953 15.6653 30.4246 14.8393 30.4246 13.766V9.286H32.0206V13.598C32.0206 14.298 32.198 14.8393 32.5526 15.222C32.9073 15.5953 33.3926 15.782 34.0086 15.782C34.6433 15.782 35.152 15.5767 35.5346 15.166C35.9173 14.7553 36.1086 14.158 36.1086 13.374V9.286H37.7186ZM49.2761 9.16C50.1907 9.16 50.9187 9.44933 51.4601 10.028C52.0107 10.6067 52.2861 11.4327 52.2861 12.506V17H50.6901V12.674C50.6901 12.002 50.5221 11.484 50.1861 11.12C49.8501 10.7467 49.3881 10.56 48.8001 10.56C48.1747 10.56 47.6754 10.7607 47.3021 11.162C46.9381 11.554 46.7561 12.1327 46.7561 12.898V17H45.1601V12.674C45.1601 12.002 44.9921 11.484 44.6561 11.12C44.3201 10.7467 43.8581 10.56 43.2701 10.56C42.6447 10.56 42.1454 10.7607 41.7721 11.162C41.4081 11.554 41.2261 12.1327 41.2261 12.898V17H39.6301V9.286H41.2261V10.896C41.4221 10.336 41.7487 9.90667 42.2061 9.608C42.6634 9.30933 43.2001 9.16 43.8161 9.16C44.4601 9.16 45.0154 9.31867 45.4821 9.636C45.9581 9.95333 46.3034 10.4107 46.5181 11.008C46.7421 10.4293 47.1014 9.97667 47.5961 9.65C48.0907 9.32333 48.6507 9.16 49.2761 9.16ZM58.5736 9.188C59.2456 9.188 59.8429 9.34667 60.3656 9.664C60.8976 9.98133 61.3129 10.4387 61.6116 11.036C61.9103 11.6333 62.0596 12.3333 62.0596 13.136C62.0596 13.948 61.9103 14.6527 61.6116 15.25C61.3129 15.8473 60.8976 16.3047 60.3656 16.622C59.8429 16.9393 59.2456 17.098 58.5736 17.098C57.8736 17.098 57.2763 16.9253 56.7816 16.58C56.2869 16.2347 55.9416 15.7773 55.7456 15.208V17H54.1496V6.64H55.7456V11.078C55.9416 10.5087 56.2869 10.0513 56.7816 9.706C57.2763 9.36067 57.8736 9.188 58.5736 9.188ZM58.0836 10.588C57.6356 10.588 57.2343 10.6953 56.8796 10.91C56.5249 11.1153 56.2449 11.414 56.0396 11.806C55.8343 12.1887 55.7316 12.632 55.7316 13.136C55.7316 13.6493 55.8343 14.0973 56.0396 14.48C56.2449 14.8627 56.5249 15.1613 56.8796 15.376C57.2343 15.5813 57.6356 15.684 58.0836 15.684C58.7929 15.684 59.3623 15.46 59.7916 15.012C60.2209 14.5547 60.4356 13.9293 60.4356 13.136C60.4356 12.352 60.2209 11.7313 59.7916 11.274C59.3623 10.8167 58.7929 10.588 58.0836 10.588ZM65.1929 10.798C65.4542 10.294 65.8275 9.89733 66.3129 9.608C66.7982 9.30933 67.3582 9.16 67.9929 9.16V10.896H67.5169C66.8169 10.896 66.2522 11.0687 65.8229 11.414C65.4029 11.75 65.1929 12.31 65.1929 13.094V17H63.5969V9.286H65.1929V10.798ZM76.3567 12.772C76.3567 13.0333 76.338 13.262 76.3007 13.458H70.3647C70.3927 14.2513 70.612 14.8393 71.0227 15.222C71.4333 15.6047 71.942 15.796 72.5487 15.796C73.0807 15.796 73.5287 15.6607 73.8927 15.39C74.266 15.1193 74.4947 14.76 74.5787 14.312H76.2867C76.184 14.8533 75.9693 15.334 75.6427 15.754C75.316 16.174 74.8913 16.5053 74.3687 16.748C73.846 16.9813 73.2627 17.098 72.6187 17.098C71.872 17.098 71.2093 16.9393 70.6307 16.622C70.0613 16.3047 69.6133 15.8473 69.2867 15.25C68.96 14.6527 68.7967 13.948 68.7967 13.136C68.7967 12.3333 68.96 11.6333 69.2867 11.036C69.6133 10.4387 70.0613 9.98133 70.6307 9.664C71.2093 9.34667 71.872 9.188 72.6187 9.188C73.3747 9.188 74.0327 9.34667 74.5927 9.664C75.162 9.972 75.596 10.4013 75.8947 10.952C76.2027 11.4933 76.3567 12.1 76.3567 12.772ZM74.7467 12.73C74.7653 12.226 74.6767 11.806 74.4807 11.47C74.294 11.1247 74.0327 10.8727 73.6967 10.714C73.37 10.546 73.0107 10.462 72.6187 10.462C71.9933 10.462 71.4707 10.6533 71.0507 11.036C70.6307 11.4187 70.402 11.9833 70.3647 12.73H74.7467ZM80.7729 15.754C82.2849 14.718 83.4936 13.7053 84.3989 12.716C85.3136 11.7173 85.7709 10.7933 85.7709 9.944C85.7709 9.44 85.6449 9.03867 85.3929 8.74C85.1502 8.44133 84.7536 8.292 84.2029 8.292C83.6336 8.292 83.2042 8.47867 82.9149 8.852C82.6256 9.216 82.4622 9.73867 82.4249 10.42H80.8709C80.9362 9.29067 81.2816 8.42733 81.9069 7.83C82.5416 7.23267 83.3489 6.934 84.3289 6.934C85.2902 6.934 86.0416 7.19067 86.5829 7.704C87.1336 8.208 87.4089 8.908 87.4089 9.804C87.4089 10.5227 87.1849 11.2507 86.7369 11.988C86.2982 12.7253 85.7382 13.4067 85.0569 14.032C84.3756 14.648 83.6709 15.18 82.9429 15.628H87.6329V16.93H80.7729V15.754ZM88.8843 11.988C88.8843 13.5653 89.1643 14.802 89.7243 15.698C90.2843 16.5847 91.2176 17.028 92.5243 17.028C93.8309 17.028 94.7643 16.58 95.3243 15.684C95.8843 14.788 96.1643 13.556 96.1643 11.988C96.1643 10.4293 95.8843 9.20667 95.3243 8.32C94.7643 7.424 93.8309 6.976 92.5243 6.976C91.2176 6.976 90.2843 7.41933 89.7243 8.306C89.1643 9.19267 88.8843 10.42 88.8843 11.988ZM94.5683 11.988C94.5683 13.1267 94.4283 13.9993 94.1483 14.606C93.8683 15.2127 93.3269 15.516 92.5243 15.516C91.7123 15.516 91.1663 15.2127 90.8863 14.606C90.6063 13.9993 90.4663 13.1267 90.4663 11.988C90.4663 10.8587 90.6063 9.99533 90.8863 9.398C91.1663 8.80067 91.7123 8.502 92.5243 8.502C93.3269 8.502 93.8683 8.80533 94.1483 9.412C94.4283 10.0093 94.5683 10.868 94.5683 11.988ZM97.4389 15.754C98.9509 14.718 100.16 13.7053 101.065 12.716C101.98 11.7173 102.437 10.7933 102.437 9.944C102.437 9.44 102.311 9.03867 102.059 8.74C101.816 8.44133 101.42 8.292 100.869 8.292C100.3 8.292 99.8702 8.47867 99.5809 8.852C99.2916 9.216 99.1282 9.73867 99.0909 10.42H97.5369C97.6022 9.29067 97.9476 8.42733 98.5729 7.83C99.2076 7.23267 100.015 6.934 100.995 6.934C101.956 6.934 102.708 7.19067 103.249 7.704C103.8 8.208 104.075 8.908 104.075 9.804C104.075 10.5227 103.851 11.2507 103.403 11.988C102.964 12.7253 102.404 13.4067 101.723 14.032C101.042 14.648 100.337 15.18 99.6089 15.628H104.299V16.93H97.4389V15.754ZM105.55 11.988C105.55 13.5653 105.83 14.802 106.39 15.698C106.95 16.5847 107.884 17.028 109.19 17.028C110.497 17.028 111.43 16.58 111.99 15.684C112.55 14.788 112.83 13.556 112.83 11.988C112.83 10.4293 112.55 9.20667 111.99 8.32C111.43 7.424 110.497 6.976 109.19 6.976C107.884 6.976 106.95 7.41933 106.39 8.306C105.83 9.19267 105.55 10.42 105.55 11.988ZM111.234 11.988C111.234 13.1267 111.094 13.9993 110.814 14.606C110.534 15.2127 109.993 15.516 109.19 15.516C108.378 15.516 107.832 15.2127 107.552 14.606C107.272 13.9993 107.132 13.1267 107.132 11.988C107.132 10.8587 107.272 9.99533 107.552 9.398C107.832 8.80067 108.378 8.502 109.19 8.502C109.993 8.502 110.534 8.80533 110.814 9.412C111.094 10.0093 111.234 10.868 111.234 11.988ZM115.771 15.236V17H113.965V15.236H115.771ZM126.814 7.116V8.404H124.056V17H122.446V8.404H119.702V7.116H126.814ZM131.533 9.188C132.28 9.188 132.952 9.34667 133.549 9.664C134.146 9.98133 134.613 10.4387 134.949 11.036C135.285 11.6333 135.453 12.3333 135.453 13.136C135.453 13.948 135.285 14.6527 134.949 15.25C134.613 15.8473 134.146 16.3047 133.549 16.622C132.952 16.9393 132.28 17.098 131.533 17.098C130.786 17.098 130.114 16.9393 129.517 16.622C128.929 16.3047 128.462 15.8473 128.117 15.25C127.781 14.6433 127.613 13.9387 127.613 13.136C127.613 12.3333 127.781 11.6333 128.117 11.036C128.462 10.4387 128.929 9.98133 129.517 9.664C130.114 9.34667 130.786 9.188 131.533 9.188ZM131.533 10.574C131.122 10.574 130.744 10.6673 130.399 10.854C130.054 11.0407 129.774 11.33 129.559 11.722C129.354 12.1047 129.251 12.576 129.251 13.136C129.251 13.7053 129.354 14.1813 129.559 14.564C129.774 14.9467 130.054 15.2313 130.399 15.418C130.744 15.6047 131.122 15.698 131.533 15.698C131.944 15.698 132.322 15.6047 132.667 15.418C133.012 15.2313 133.288 14.9467 133.493 14.564C133.708 14.1813 133.815 13.7053 133.815 13.136C133.815 12.576 133.708 12.1047 133.493 11.722C133.288 11.33 133.012 11.0407 132.667 10.854C132.322 10.6673 131.944 10.574 131.533 10.574ZM140.081 9.188C140.781 9.188 141.379 9.36067 141.873 9.706C142.368 10.0513 142.713 10.5087 142.909 11.078V6.64H144.519V17H142.909V15.208C142.713 15.7773 142.368 16.2347 141.873 16.58C141.379 16.9253 140.781 17.098 140.081 17.098C139.409 17.098 138.807 16.9393 138.275 16.622C137.753 16.3047 137.342 15.8473 137.043 15.25C136.745 14.6527 136.595 13.948 136.595 13.136C136.595 12.3333 136.745 11.6333 137.043 11.036C137.342 10.4387 137.753 9.98133 138.275 9.664C138.807 9.34667 139.409 9.188 140.081 9.188ZM140.571 10.588C139.862 10.588 139.293 10.8167 138.863 11.274C138.443 11.722 138.233 12.3427 138.233 13.136C138.233 13.9293 138.443 14.5547 138.863 15.012C139.293 15.46 139.862 15.684 140.571 15.684C141.019 15.684 141.421 15.5813 141.775 15.376C142.13 15.1613 142.41 14.8627 142.615 14.48C142.821 14.0973 142.923 13.6493 142.923 13.136C142.923 12.632 142.821 12.1887 142.615 11.806C142.41 11.414 142.13 11.1153 141.775 10.91C141.421 10.6953 141.019 10.588 140.571 10.588ZM149.963 9.188C150.709 9.188 151.381 9.34667 151.979 9.664C152.576 9.98133 153.043 10.4387 153.379 11.036C153.715 11.6333 153.883 12.3333 153.883 13.136C153.883 13.948 153.715 14.6527 153.379 15.25C153.043 15.8473 152.576 16.3047 151.979 16.622C151.381 16.9393 150.709 17.098 149.963 17.098C149.216 17.098 148.544 16.9393 147.947 16.622C147.359 16.3047 146.892 15.8473 146.547 15.25C146.211 14.6433 146.043 13.9387 146.043 13.136C146.043 12.3333 146.211 11.6333 146.547 11.036C146.892 10.4387 147.359 9.98133 147.947 9.664C148.544 9.34667 149.216 9.188 149.963 9.188ZM149.963 10.574C149.552 10.574 149.174 10.6673 148.829 10.854C148.483 11.0407 148.203 11.33 147.989 11.722C147.783 12.1047 147.681 12.576 147.681 13.136C147.681 13.7053 147.783 14.1813 147.989 14.564C148.203 14.9467 148.483 15.2313 148.829 15.418C149.174 15.6047 149.552 15.698 149.963 15.698C150.373 15.698 150.751 15.6047 151.097 15.418C151.442 15.2313 151.717 14.9467 151.923 14.564C152.137 14.1813 152.245 13.7053 152.245 13.136C152.245 12.576 152.137 12.1047 151.923 11.722C151.717 11.33 151.442 11.0407 151.097 10.854C150.751 10.6673 150.373 10.574 149.963 10.574ZM157.951 9.188C158.857 9.188 159.58 9.42133 160.121 9.888C160.672 10.3453 161.008 10.9613 161.129 11.736H159.617C159.552 11.316 159.37 10.98 159.071 10.728C158.782 10.4667 158.395 10.336 157.909 10.336C157.508 10.336 157.195 10.434 156.971 10.63C156.757 10.8167 156.649 11.0733 156.649 11.4C156.649 11.6427 156.729 11.8387 156.887 11.988C157.046 12.1373 157.242 12.254 157.475 12.338C157.718 12.422 158.059 12.5153 158.497 12.618C159.076 12.7487 159.543 12.884 159.897 13.024C160.261 13.164 160.569 13.388 160.821 13.696C161.083 13.9947 161.213 14.4053 161.213 14.928C161.213 15.572 160.966 16.0947 160.471 16.496C159.986 16.8973 159.328 17.098 158.497 17.098C157.536 17.098 156.757 16.874 156.159 16.426C155.571 15.978 155.217 15.3527 155.095 14.55H156.649C156.696 14.97 156.883 15.3107 157.209 15.572C157.536 15.8333 157.965 15.964 158.497 15.964C158.88 15.964 159.179 15.866 159.393 15.67C159.617 15.4647 159.729 15.208 159.729 14.9C159.729 14.6293 159.645 14.4147 159.477 14.256C159.309 14.0973 159.099 13.976 158.847 13.892C158.595 13.7987 158.25 13.7053 157.811 13.612C157.251 13.4813 156.794 13.3507 156.439 13.22C156.094 13.0893 155.795 12.8793 155.543 12.59C155.301 12.2913 155.179 11.89 155.179 11.386C155.179 10.7327 155.422 10.2053 155.907 9.804C156.402 9.39333 157.083 9.188 157.951 9.188ZM167.691 6.64V17H166.095V6.64H167.691ZM173.15 9.188C173.897 9.188 174.569 9.34667 175.166 9.664C175.764 9.98133 176.23 10.4387 176.566 11.036C176.902 11.6333 177.07 12.3333 177.07 13.136C177.07 13.948 176.902 14.6527 176.566 15.25C176.23 15.8473 175.764 16.3047 175.166 16.622C174.569 16.9393 173.897 17.098 173.15 17.098C172.404 17.098 171.732 16.9393 171.134 16.622C170.546 16.3047 170.08 15.8473 169.734 15.25C169.398 14.6433 169.23 13.9387 169.23 13.136C169.23 12.3333 169.398 11.6333 169.734 11.036C170.08 10.4387 170.546 9.98133 171.134 9.664C171.732 9.34667 172.404 9.188 173.15 9.188ZM173.15 10.574C172.74 10.574 172.362 10.6673 172.016 10.854C171.671 11.0407 171.391 11.33 171.176 11.722C170.971 12.1047 170.868 12.576 170.868 13.136C170.868 13.7053 170.971 14.1813 171.176 14.564C171.391 14.9467 171.671 15.2313 172.016 15.418C172.362 15.6047 172.74 15.698 173.15 15.698C173.561 15.698 173.939 15.6047 174.284 15.418C174.63 15.2313 174.905 14.9467 175.11 14.564C175.325 14.1813 175.432 13.7053 175.432 13.136C175.432 12.576 175.325 12.1047 175.11 11.722C174.905 11.33 174.63 11.0407 174.284 10.854C173.939 10.6673 173.561 10.574 173.15 10.574ZM181.139 9.188C182.044 9.188 182.767 9.42133 183.309 9.888C183.859 10.3453 184.195 10.9613 184.317 11.736H182.805C182.739 11.316 182.557 10.98 182.259 10.728C181.969 10.4667 181.582 10.336 181.097 10.336C180.695 10.336 180.383 10.434 180.159 10.63C179.944 10.8167 179.837 11.0733 179.837 11.4C179.837 11.6427 179.916 11.8387 180.075 11.988C180.233 12.1373 180.429 12.254 180.663 12.338C180.905 12.422 181.246 12.5153 181.685 12.618C182.263 12.7487 182.73 12.884 183.085 13.024C183.449 13.164 183.757 13.388 184.009 13.696C184.27 13.9947 184.401 14.4053 184.401 14.928C184.401 15.572 184.153 16.0947 183.659 16.496C183.173 16.8973 182.515 17.098 181.685 17.098C180.723 17.098 179.944 16.874 179.347 16.426C178.759 15.978 178.404 15.3527 178.283 14.55H179.837C179.883 14.97 180.07 15.3107 180.397 15.572C180.723 15.8333 181.153 15.964 181.685 15.964C182.067 15.964 182.366 15.866 182.581 15.67C182.805 15.4647 182.917 15.208 182.917 14.9C182.917 14.6293 182.833 14.4147 182.665 14.256C182.497 14.0973 182.287 13.976 182.035 13.892C181.783 13.7987 181.437 13.7053 180.999 13.612C180.439 13.4813 179.981 13.3507 179.627 13.22C179.281 13.0893 178.983 12.8793 178.731 12.59C178.488 12.2913 178.367 11.89 178.367 11.386C178.367 10.7327 178.609 10.2053 179.095 9.804C179.589 9.39333 180.271 9.188 181.139 9.188ZM192.376 9.188C193.076 9.188 193.674 9.36067 194.168 9.706C194.663 10.0513 195.008 10.5087 195.204 11.078V6.64H196.814V17H195.204V15.208C195.008 15.7773 194.663 16.2347 194.168 16.58C193.674 16.9253 193.076 17.098 192.376 17.098C191.704 17.098 191.102 16.9393 190.57 16.622C190.048 16.3047 189.637 15.8473 189.338 15.25C189.04 14.6527 188.89 13.948 188.89 13.136C188.89 12.3333 189.04 11.6333 189.338 11.036C189.637 10.4387 190.048 9.98133 190.57 9.664C191.102 9.34667 191.704 9.188 192.376 9.188ZM192.866 10.588C192.157 10.588 191.588 10.8167 191.158 11.274C190.738 11.722 190.528 12.3427 190.528 13.136C190.528 13.9293 190.738 14.5547 191.158 15.012C191.588 15.46 192.157 15.684 192.866 15.684C193.314 15.684 193.716 15.5813 194.07 15.376C194.425 15.1613 194.705 14.8627 194.91 14.48C195.116 14.0973 195.218 13.6493 195.218 13.136C195.218 12.632 195.116 12.1887 194.91 11.806C194.705 11.414 194.425 11.1153 194.07 10.91C193.716 10.6953 193.314 10.588 192.866 10.588ZM205.898 12.772C205.898 13.0333 205.879 13.262 205.842 13.458H199.906C199.934 14.2513 200.153 14.8393 200.564 15.222C200.974 15.6047 201.483 15.796 202.09 15.796C202.622 15.796 203.07 15.6607 203.434 15.39C203.807 15.1193 204.036 14.76 204.12 14.312H205.828C205.725 14.8533 205.51 15.334 205.184 15.754C204.857 16.174 204.432 16.5053 203.91 16.748C203.387 16.9813 202.804 17.098 202.16 17.098C201.413 17.098 200.75 16.9393 200.172 16.622C199.602 16.3047 199.154 15.8473 198.828 15.25C198.501 14.6527 198.338 13.948 198.338 13.136C198.338 12.3333 198.501 11.6333 198.828 11.036C199.154 10.4387 199.602 9.98133 200.172 9.664C200.75 9.34667 201.413 9.188 202.16 9.188C202.916 9.188 203.574 9.34667 204.134 9.664C204.703 9.972 205.137 10.4013 205.436 10.952C205.744 11.4933 205.898 12.1 205.898 12.772ZM204.288 12.73C204.306 12.226 204.218 11.806 204.022 11.47C203.835 11.1247 203.574 10.8727 203.238 10.714C202.911 10.546 202.552 10.462 202.16 10.462C201.534 10.462 201.012 10.6533 200.592 11.036C200.172 11.4187 199.943 11.9833 199.906 12.73H204.288ZM209.035 10.798C209.296 10.294 209.669 9.89733 210.155 9.608C210.64 9.30933 211.2 9.16 211.835 9.16V10.896H211.359C210.659 10.896 210.094 11.0687 209.665 11.414C209.245 11.75 209.035 12.31 209.035 13.094V17H207.439V9.286H209.035V10.798ZM220.198 12.772C220.198 13.0333 220.18 13.262 220.142 13.458H214.206C214.234 14.2513 214.454 14.8393 214.864 15.222C215.275 15.6047 215.784 15.796 216.39 15.796C216.922 15.796 217.37 15.6607 217.734 15.39C218.108 15.1193 218.336 14.76 218.42 14.312H220.128C220.026 14.8533 219.811 15.334 219.484 15.754C219.158 16.174 218.733 16.5053 218.21 16.748C217.688 16.9813 217.104 17.098 216.46 17.098C215.714 17.098 215.051 16.9393 214.472 16.622C213.903 16.3047 213.455 15.8473 213.128 15.25C212.802 14.6527 212.638 13.948 212.638 13.136C212.638 12.3333 212.802 11.6333 213.128 11.036C213.455 10.4387 213.903 9.98133 214.472 9.664C215.051 9.34667 215.714 9.188 216.46 9.188C217.216 9.188 217.874 9.34667 218.434 9.664C219.004 9.972 219.438 10.4013 219.736 10.952C220.044 11.4933 220.198 12.1 220.198 12.772ZM218.588 12.73C218.607 12.226 218.518 11.806 218.322 11.47C218.136 11.1247 217.874 10.8727 217.538 10.714C217.212 10.546 216.852 10.462 216.46 10.462C215.835 10.462 215.312 10.6533 214.892 11.036C214.472 11.4187 214.244 11.9833 214.206 12.73H218.588ZM225.169 9.188C226.168 9.188 226.994 9.454 227.647 9.986C228.301 10.5087 228.707 11.2227 228.865 12.128H227.171C227.078 11.6427 226.849 11.2647 226.485 10.994C226.131 10.714 225.683 10.574 225.141 10.574C224.525 10.574 224.012 10.7933 223.601 11.232C223.191 11.6613 222.985 12.296 222.985 13.136C222.985 13.976 223.191 14.6153 223.601 15.054C224.012 15.4927 224.525 15.712 225.141 15.712C225.683 15.712 226.131 15.572 226.485 15.292C226.849 15.012 227.078 14.6293 227.171 14.144H228.865C228.707 15.0493 228.301 15.768 227.647 16.3C226.994 16.832 226.168 17.098 225.169 17.098C224.423 17.098 223.76 16.9393 223.181 16.622C222.612 16.3047 222.164 15.8473 221.837 15.25C221.511 14.6527 221.347 13.948 221.347 13.136C221.347 12.3333 221.511 11.6333 221.837 11.036C222.164 10.4387 222.612 9.98133 223.181 9.664C223.76 9.34667 224.423 9.188 225.169 9.188ZM234.719 9.16C235.615 9.16 236.334 9.44933 236.875 10.028C237.417 10.6067 237.687 11.4327 237.687 12.506V17H236.091V12.674C236.091 11.9833 235.914 11.4513 235.559 11.078C235.205 10.6953 234.719 10.504 234.103 10.504C233.469 10.504 232.96 10.7093 232.577 11.12C232.195 11.5213 232.003 12.114 232.003 12.898V17H230.407V6.64H232.003V10.98C232.209 10.4013 232.554 9.95333 233.039 9.636C233.525 9.31867 234.085 9.16 234.719 9.16ZM243.082 9.188C243.829 9.188 244.501 9.34667 245.098 9.664C245.695 9.98133 246.162 10.4387 246.498 11.036C246.834 11.6333 247.002 12.3333 247.002 13.136C247.002 13.948 246.834 14.6527 246.498 15.25C246.162 15.8473 245.695 16.3047 245.098 16.622C244.501 16.9393 243.829 17.098 243.082 17.098C242.335 17.098 241.663 16.9393 241.066 16.622C240.478 16.3047 240.011 15.8473 239.666 15.25C239.33 14.6433 239.162 13.9387 239.162 13.136C239.162 12.3333 239.33 11.6333 239.666 11.036C240.011 10.4387 240.478 9.98133 241.066 9.664C241.663 9.34667 242.335 9.188 243.082 9.188ZM243.082 10.574C242.671 10.574 242.293 10.6673 241.948 10.854C241.603 11.0407 241.323 11.33 241.108 11.722C240.903 12.1047 240.8 12.576 240.8 13.136C240.8 13.7053 240.903 14.1813 241.108 14.564C241.323 14.9467 241.603 15.2313 241.948 15.418C242.293 15.6047 242.671 15.698 243.082 15.698C243.493 15.698 243.871 15.6047 244.216 15.418C244.561 15.2313 244.837 14.9467 245.042 14.564C245.257 14.1813 245.364 13.7053 245.364 13.136C245.364 12.576 245.257 12.1047 245.042 11.722C244.837 11.33 244.561 11.0407 244.216 10.854C243.871 10.6673 243.493 10.574 243.082 10.574ZM251.07 9.188C251.976 9.188 252.699 9.42133 253.24 9.888C253.791 10.3453 254.127 10.9613 254.248 11.736H252.736C252.671 11.316 252.489 10.98 252.19 10.728C251.901 10.4667 251.514 10.336 251.028 10.336C250.627 10.336 250.314 10.434 250.09 10.63C249.876 10.8167 249.768 11.0733 249.768 11.4C249.768 11.6427 249.848 11.8387 250.006 11.988C250.165 12.1373 250.361 12.254 250.594 12.338C250.837 12.422 251.178 12.5153 251.616 12.618C252.195 12.7487 252.662 12.884 253.016 13.024C253.38 13.164 253.688 13.388 253.94 13.696C254.202 13.9947 254.332 14.4053 254.332 14.928C254.332 15.572 254.085 16.0947 253.59 16.496C253.105 16.8973 252.447 17.098 251.616 17.098C250.655 17.098 249.876 16.874 249.278 16.426C248.69 15.978 248.336 15.3527 248.214 14.55H249.768C249.815 14.97 250.002 15.3107 250.328 15.572C250.655 15.8333 251.084 15.964 251.616 15.964C251.999 15.964 252.298 15.866 252.512 15.67C252.736 15.4647 252.848 15.208 252.848 14.9C252.848 14.6293 252.764 14.4147 252.596 14.256C252.428 14.0973 252.218 13.976 251.966 13.892C251.714 13.7987 251.369 13.7053 250.93 13.612C250.37 13.4813 249.913 13.3507 249.558 13.22C249.213 13.0893 248.914 12.8793 248.662 12.59C248.42 12.2913 248.298 11.89 248.298 11.386C248.298 10.7327 248.541 10.2053 249.026 9.804C249.521 9.39333 250.202 9.188 251.07 9.188ZM260.81 10.798C261.071 10.294 261.445 9.89733 261.93 9.608C262.415 9.30933 262.975 9.16 263.61 9.16V10.896H263.134C262.434 10.896 261.869 11.0687 261.44 11.414C261.02 11.75 260.81 12.31 260.81 13.094V17H259.214V9.286H260.81V10.798ZM271.974 12.772C271.974 13.0333 271.955 13.262 271.918 13.458H265.982C266.01 14.2513 266.229 14.8393 266.64 15.222C267.051 15.6047 267.559 15.796 268.166 15.796C268.698 15.796 269.146 15.6607 269.51 15.39C269.883 15.1193 270.112 14.76 270.196 14.312H271.904C271.801 14.8533 271.587 15.334 271.26 15.754C270.933 16.174 270.509 16.5053 269.986 16.748C269.463 16.9813 268.88 17.098 268.236 17.098C267.489 17.098 266.827 16.9393 266.248 16.622C265.679 16.3047 265.231 15.8473 264.904 15.25C264.577 14.6527 264.414 13.948 264.414 13.136C264.414 12.3333 264.577 11.6333 264.904 11.036C265.231 10.4387 265.679 9.98133 266.248 9.664C266.827 9.34667 267.489 9.188 268.236 9.188C268.992 9.188 269.65 9.34667 270.21 9.664C270.779 9.972 271.213 10.4013 271.512 10.952C271.82 11.4933 271.974 12.1 271.974 12.772ZM270.364 12.73C270.383 12.226 270.294 11.806 270.098 11.47C269.911 11.1247 269.65 10.8727 269.314 10.714C268.987 10.546 268.628 10.462 268.236 10.462C267.611 10.462 267.088 10.6533 266.668 11.036C266.248 11.4187 266.019 11.9833 265.982 12.73H270.364ZM276.049 9.188C276.954 9.188 277.677 9.42133 278.219 9.888C278.769 10.3453 279.105 10.9613 279.227 11.736H277.715C277.649 11.316 277.467 10.98 277.169 10.728C276.879 10.4667 276.492 10.336 276.007 10.336C275.605 10.336 275.293 10.434 275.069 10.63C274.854 10.8167 274.747 11.0733 274.747 11.4C274.747 11.6427 274.826 11.8387 274.985 11.988C275.143 12.1373 275.339 12.254 275.573 12.338C275.815 12.422 276.156 12.5153 276.595 12.618C277.173 12.7487 277.64 12.884 277.995 13.024C278.359 13.164 278.667 13.388 278.919 13.696C279.18 13.9947 279.311 14.4053 279.311 14.928C279.311 15.572 279.063 16.0947 278.569 16.496C278.083 16.8973 277.425 17.098 276.595 17.098C275.633 17.098 274.854 16.874 274.257 16.426C273.669 15.978 273.314 15.3527 273.193 14.55H274.747C274.793 14.97 274.98 15.3107 275.307 15.572C275.633 15.8333 276.063 15.964 276.595 15.964C276.977 15.964 277.276 15.866 277.491 15.67C277.715 15.4647 277.827 15.208 277.827 14.9C277.827 14.6293 277.743 14.4147 277.575 14.256C277.407 14.0973 277.197 13.976 276.945 13.892C276.693 13.7987 276.347 13.7053 275.909 13.612C275.349 13.4813 274.891 13.3507 274.537 13.22C274.191 13.0893 273.893 12.8793 273.641 12.59C273.398 12.2913 273.277 11.89 273.277 11.386C273.277 10.7327 273.519 10.2053 274.005 9.804C274.499 9.39333 275.181 9.188 276.049 9.188ZM288.079 12.772C288.079 13.0333 288.061 13.262 288.023 13.458H282.087C282.115 14.2513 282.335 14.8393 282.745 15.222C283.156 15.6047 283.665 15.796 284.271 15.796C284.803 15.796 285.251 15.6607 285.615 15.39C285.989 15.1193 286.217 14.76 286.301 14.312H288.009C287.907 14.8533 287.692 15.334 287.365 15.754C287.039 16.174 286.614 16.5053 286.091 16.748C285.569 16.9813 284.985 17.098 284.341 17.098C283.595 17.098 282.932 16.9393 282.353 16.622C281.784 16.3047 281.336 15.8473 281.009 15.25C280.683 14.6527 280.519 13.948 280.519 13.136C280.519 12.3333 280.683 11.6333 281.009 11.036C281.336 10.4387 281.784 9.98133 282.353 9.664C282.932 9.34667 283.595 9.188 284.341 9.188C285.097 9.188 285.755 9.34667 286.315 9.664C286.885 9.972 287.319 10.4013 287.617 10.952C287.925 11.4933 288.079 12.1 288.079 12.772ZM286.469 12.73C286.488 12.226 286.399 11.806 286.203 11.47C286.017 11.1247 285.755 10.8727 285.419 10.714C285.093 10.546 284.733 10.462 284.341 10.462C283.716 10.462 283.193 10.6533 282.773 11.036C282.353 11.4187 282.125 11.9833 282.087 12.73H286.469ZM291.216 10.798C291.478 10.294 291.851 9.89733 292.336 9.608C292.822 9.30933 293.382 9.16 294.016 9.16V10.896H293.54C292.84 10.896 292.276 11.0687 291.846 11.414C291.426 11.75 291.216 12.31 291.216 13.094V17H289.62V9.286H291.216V10.798ZM298.376 15.348L300.56 9.286H302.268L299.328 17H297.396L294.456 9.286H296.164L298.376 15.348ZM306.537 9.188C307.237 9.188 307.834 9.36067 308.329 9.706C308.823 10.0513 309.173 10.5087 309.379 11.078V9.286H310.975V17H309.379V15.208C309.173 15.7773 308.823 16.2347 308.329 16.58C307.834 16.9253 307.237 17.098 306.537 17.098C305.865 17.098 305.263 16.9393 304.731 16.622C304.208 16.3047 303.797 15.8473 303.499 15.25C303.2 14.6527 303.051 13.948 303.051 13.136C303.051 12.3333 303.2 11.6333 303.499 11.036C303.797 10.4387 304.208 9.98133 304.731 9.664C305.263 9.34667 305.865 9.188 306.537 9.188ZM307.027 10.588C306.317 10.588 305.748 10.8167 305.319 11.274C304.899 11.722 304.689 12.3427 304.689 13.136C304.689 13.9293 304.899 14.5547 305.319 15.012C305.748 15.46 306.317 15.684 307.027 15.684C307.475 15.684 307.876 15.5813 308.231 15.376C308.585 15.1613 308.865 14.8627 309.071 14.48C309.276 14.0973 309.379 13.6493 309.379 13.136C309.379 12.632 309.276 12.1887 309.071 11.806C308.865 11.414 308.585 11.1153 308.231 10.91C307.876 10.6953 307.475 10.588 307.027 10.588ZM315.984 9.188C316.684 9.188 317.281 9.36067 317.776 9.706C318.27 10.0513 318.616 10.5087 318.812 11.078V6.64H320.422V17H318.812V15.208C318.616 15.7773 318.27 16.2347 317.776 16.58C317.281 16.9253 316.684 17.098 315.984 17.098C315.312 17.098 314.71 16.9393 314.178 16.622C313.655 16.3047 313.244 15.8473 312.946 15.25C312.647 14.6527 312.498 13.948 312.498 13.136C312.498 12.3333 312.647 11.6333 312.946 11.036C313.244 10.4387 313.655 9.98133 314.178 9.664C314.71 9.34667 315.312 9.188 315.984 9.188ZM316.474 10.588C315.764 10.588 315.195 10.8167 314.766 11.274C314.346 11.722 314.136 12.3427 314.136 13.136C314.136 13.9293 314.346 14.5547 314.766 15.012C315.195 15.46 315.764 15.684 316.474 15.684C316.922 15.684 317.323 15.5813 317.678 15.376C318.032 15.1613 318.312 14.8627 318.518 14.48C318.723 14.0973 318.826 13.6493 318.826 13.136C318.826 12.632 318.723 12.1887 318.518 11.806C318.312 11.414 318.032 11.1153 317.678 10.91C317.323 10.6953 316.922 10.588 316.474 10.588ZM325.865 9.188C326.612 9.188 327.284 9.34667 327.881 9.664C328.478 9.98133 328.945 10.4387 329.281 11.036C329.617 11.6333 329.785 12.3333 329.785 13.136C329.785 13.948 329.617 14.6527 329.281 15.25C328.945 15.8473 328.478 16.3047 327.881 16.622C327.284 16.9393 326.612 17.098 325.865 17.098C325.118 17.098 324.446 16.9393 323.849 16.622C323.261 16.3047 322.794 15.8473 322.449 15.25C322.113 14.6433 321.945 13.9387 321.945 13.136C321.945 12.3333 322.113 11.6333 322.449 11.036C322.794 10.4387 323.261 9.98133 323.849 9.664C324.446 9.34667 325.118 9.188 325.865 9.188ZM325.865 10.574C325.454 10.574 325.076 10.6673 324.731 10.854C324.386 11.0407 324.106 11.33 323.891 11.722C323.686 12.1047 323.583 12.576 323.583 13.136C323.583 13.7053 323.686 14.1813 323.891 14.564C324.106 14.9467 324.386 15.2313 324.731 15.418C325.076 15.6047 325.454 15.698 325.865 15.698C326.276 15.698 326.654 15.6047 326.999 15.418C327.344 15.2313 327.62 14.9467 327.825 14.564C328.04 14.1813 328.147 13.7053 328.147 13.136C328.147 12.576 328.04 12.1047 327.825 11.722C327.62 11.33 327.344 11.0407 326.999 10.854C326.654 10.6673 326.276 10.574 325.865 10.574ZM333.854 9.188C334.759 9.188 335.482 9.42133 336.024 9.888C336.574 10.3453 336.91 10.9613 337.032 11.736H335.52C335.454 11.316 335.272 10.98 334.974 10.728C334.684 10.4667 334.297 10.336 333.812 10.336C333.41 10.336 333.098 10.434 332.874 10.63C332.659 10.8167 332.552 11.0733 332.552 11.4C332.552 11.6427 332.631 11.8387 332.79 11.988C332.948 12.1373 333.144 12.254 333.378 12.338C333.62 12.422 333.961 12.5153 334.4 12.618C334.978 12.7487 335.445 12.884 335.8 13.024C336.164 13.164 336.472 13.388 336.724 13.696C336.985 13.9947 337.116 14.4053 337.116 14.928C337.116 15.572 336.868 16.0947 336.374 16.496C335.888 16.8973 335.23 17.098 334.4 17.098C333.438 17.098 332.659 16.874 332.062 16.426C331.474 15.978 331.119 15.3527 330.998 14.55H332.552C332.598 14.97 332.785 15.3107 333.112 15.572C333.438 15.8333 333.868 15.964 334.4 15.964C334.782 15.964 335.081 15.866 335.296 15.67C335.52 15.4647 335.632 15.208 335.632 14.9C335.632 14.6293 335.548 14.4147 335.38 14.256C335.212 14.0973 335.002 13.976 334.75 13.892C334.498 13.7987 334.152 13.7053 333.714 13.612C333.154 13.4813 332.696 13.3507 332.342 13.22C331.996 13.0893 331.698 12.8793 331.446 12.59C331.203 12.2913 331.082 11.89 331.082 11.386C331.082 10.7327 331.324 10.2053 331.81 9.804C332.304 9.39333 332.986 9.188 333.854 9.188Z" fill="white"/>
<path d="M893.599 7.27V17H891.989V9.706L889.175 17H887.775L884.947 9.706V17H883.351V7.27H885.283L888.503 15.04L891.667 7.27H893.599ZM898.613 9.188C899.313 9.188 899.91 9.36067 900.405 9.706C900.899 10.0513 901.249 10.5087 901.455 11.078V9.286H903.051V17H901.455V15.208C901.249 15.7773 900.899 16.2347 900.405 16.58C899.91 16.9253 899.313 17.098 898.613 17.098C897.941 17.098 897.339 16.9393 896.807 16.622C896.284 16.3047 895.873 15.8473 895.575 15.25C895.276 14.6527 895.127 13.948 895.127 13.136C895.127 12.3333 895.276 11.6333 895.575 11.036C895.873 10.4387 896.284 9.98133 896.807 9.664C897.339 9.34667 897.941 9.188 898.613 9.188ZM899.103 10.588C898.393 10.588 897.824 10.8167 897.395 11.274C896.975 11.722 896.765 12.3427 896.765 13.136C896.765 13.9293 896.975 14.5547 897.395 15.012C897.824 15.46 898.393 15.684 899.103 15.684C899.551 15.684 899.952 15.5813 900.307 15.376C900.661 15.1613 900.941 14.8627 901.147 14.48C901.352 14.0973 901.455 13.6493 901.455 13.136C901.455 12.632 901.352 12.1887 901.147 11.806C900.941 11.414 900.661 11.1153 900.307 10.91C899.952 10.6953 899.551 10.588 899.103 10.588ZM906.562 10.798C906.823 10.294 907.197 9.89733 907.682 9.608C908.167 9.30933 908.727 9.16 909.362 9.16V10.896H908.886C908.186 10.896 907.621 11.0687 907.192 11.414C906.772 11.75 906.562 12.31 906.562 13.094V17H904.966V9.286H906.562V10.798ZM910.334 7.046C910.334 6.77533 910.427 6.55133 910.614 6.374C910.8 6.19667 911.048 6.108 911.356 6.108C911.664 6.108 911.911 6.19667 912.098 6.374C912.294 6.55133 912.392 6.77533 912.392 7.046C912.392 7.31667 912.294 7.536 912.098 7.704C911.911 7.872 911.664 7.956 911.356 7.956C911.048 7.956 910.8 7.872 910.614 7.704C910.427 7.536 910.334 7.31667 910.334 7.046ZM912.154 9.286V17H910.558V9.286H912.154ZM917.179 9.188C917.879 9.188 918.476 9.36067 918.971 9.706C919.466 10.0513 919.816 10.5087 920.021 11.078V9.286H921.617V17H920.021V15.208C919.816 15.7773 919.466 16.2347 918.971 16.58C918.476 16.9253 917.879 17.098 917.179 17.098C916.507 17.098 915.905 16.9393 915.373 16.622C914.85 16.3047 914.44 15.8473 914.141 15.25C913.842 14.6527 913.693 13.948 913.693 13.136C913.693 12.3333 913.842 11.6333 914.141 11.036C914.44 10.4387 914.85 9.98133 915.373 9.664C915.905 9.34667 916.507 9.188 917.179 9.188ZM917.669 10.588C916.96 10.588 916.39 10.8167 915.961 11.274C915.541 11.722 915.331 12.3427 915.331 13.136C915.331 13.9293 915.541 14.5547 915.961 15.012C916.39 15.46 916.96 15.684 917.669 15.684C918.117 15.684 918.518 15.5813 918.873 15.376C919.228 15.1613 919.508 14.8627 919.713 14.48C919.918 14.0973 920.021 13.6493 920.021 13.136C920.021 12.632 919.918 12.1887 919.713 11.806C919.508 11.414 919.228 11.1153 918.873 10.91C918.518 10.6953 918.117 10.588 917.669 10.588ZM927.844 9.16C928.74 9.16 929.459 9.44933 930 10.028C930.542 10.6067 930.812 11.4327 930.812 12.506V17H929.216V12.674C929.216 11.9833 929.039 11.4513 928.684 11.078C928.33 10.6953 927.844 10.504 927.228 10.504C926.594 10.504 926.085 10.7093 925.702 11.12C925.32 11.5213 925.128 12.114 925.128 12.898V17H923.532V9.286H925.128V10.98C925.334 10.4013 925.679 9.95333 926.164 9.636C926.65 9.31867 927.21 9.16 927.844 9.16ZM942.456 14.368C942.456 14.8533 942.339 15.306 942.106 15.726C941.873 16.1367 941.518 16.468 941.042 16.72C940.566 16.972 939.983 17.098 939.292 17.098C938.62 17.098 938.018 16.9813 937.486 16.748C936.954 16.5053 936.529 16.1693 936.212 15.74C935.895 15.3107 935.713 14.816 935.666 14.256H937.374C937.421 14.6853 937.603 15.054 937.92 15.362C938.247 15.67 938.681 15.824 939.222 15.824C939.707 15.824 940.081 15.6933 940.342 15.432C940.613 15.1707 940.748 14.8347 940.748 14.424C940.748 14.0693 940.65 13.78 940.454 13.556C940.258 13.3227 940.015 13.1407 939.726 13.01C939.437 12.8793 939.04 12.73 938.536 12.562C937.92 12.366 937.416 12.17 937.024 11.974C936.641 11.778 936.315 11.4933 936.044 11.12C935.773 10.7467 935.638 10.2567 935.638 9.65C935.638 9.118 935.769 8.65133 936.03 8.25C936.291 7.84867 936.665 7.54067 937.15 7.326C937.635 7.102 938.195 6.99 938.83 6.99C939.838 6.99 940.636 7.23267 941.224 7.718C941.821 8.20333 942.162 8.838 942.246 9.622H940.524C940.459 9.24867 940.281 8.93133 939.992 8.67C939.712 8.39933 939.325 8.264 938.83 8.264C938.382 8.264 938.023 8.38067 937.752 8.614C937.481 8.838 937.346 9.16467 937.346 9.594C937.346 9.93 937.439 10.21 937.626 10.434C937.813 10.6487 938.046 10.8213 938.326 10.952C938.615 11.0733 939.007 11.218 939.502 11.386C940.127 11.582 940.636 11.7827 941.028 11.988C941.429 12.184 941.765 12.4733 942.036 12.856C942.316 13.2387 942.456 13.7427 942.456 14.368ZM947.582 9.188C948.329 9.188 949.001 9.34667 949.598 9.664C950.195 9.98133 950.662 10.4387 950.998 11.036C951.334 11.6333 951.502 12.3333 951.502 13.136C951.502 13.948 951.334 14.6527 950.998 15.25C950.662 15.8473 950.195 16.3047 949.598 16.622C949.001 16.9393 948.329 17.098 947.582 17.098C946.835 17.098 946.163 16.9393 945.566 16.622C944.978 16.3047 944.511 15.8473 944.166 15.25C943.83 14.6433 943.662 13.9387 943.662 13.136C943.662 12.3333 943.83 11.6333 944.166 11.036C944.511 10.4387 944.978 9.98133 945.566 9.664C946.163 9.34667 946.835 9.188 947.582 9.188ZM947.582 10.574C947.171 10.574 946.793 10.6673 946.448 10.854C946.103 11.0407 945.823 11.33 945.608 11.722C945.403 12.1047 945.3 12.576 945.3 13.136C945.3 13.7053 945.403 14.1813 945.608 14.564C945.823 14.9467 946.103 15.2313 946.448 15.418C946.793 15.6047 947.171 15.698 947.582 15.698C947.993 15.698 948.371 15.6047 948.716 15.418C949.061 15.2313 949.337 14.9467 949.542 14.564C949.757 14.1813 949.864 13.7053 949.864 13.136C949.864 12.576 949.757 12.1047 949.542 11.722C949.337 11.33 949.061 11.0407 948.716 10.854C948.371 10.6673 947.993 10.574 947.582 10.574ZM956.634 7.69C956.009 7.662 955.57 7.76467 955.318 7.998C955.066 8.222 954.94 8.60933 954.94 9.16V9.286H956.634V10.658H954.94V17H953.33V10.658H952.28V9.286H953.33V9.034C953.33 8.09133 953.606 7.38667 954.156 6.92C954.707 6.444 955.533 6.234 956.634 6.29V7.69ZM959.681 9.286V17H958.071V9.286H959.681ZM961.109 7.102L958.015 8.684V7.564L961.109 5.856V7.102ZM964.88 9.188C965.58 9.188 966.178 9.36067 966.672 9.706C967.167 10.0513 967.517 10.5087 967.722 11.078V9.286H969.318V17H967.722V15.208C967.517 15.7773 967.167 16.2347 966.672 16.58C966.178 16.9253 965.58 17.098 964.88 17.098C964.208 17.098 963.606 16.9393 963.074 16.622C962.552 16.3047 962.141 15.8473 961.842 15.25C961.544 14.6527 961.394 13.948 961.394 13.136C961.394 12.3333 961.544 11.6333 961.842 11.036C962.141 10.4387 962.552 9.98133 963.074 9.664C963.606 9.34667 964.208 9.188 964.88 9.188ZM965.37 10.588C964.661 10.588 964.092 10.8167 963.662 11.274C963.242 11.722 963.032 12.3427 963.032 13.136C963.032 13.9293 963.242 14.5547 963.662 15.012C964.092 15.46 964.661 15.684 965.37 15.684C965.818 15.684 966.22 15.5813 966.574 15.376C966.929 15.1613 967.209 14.8627 967.414 14.48C967.62 14.0973 967.722 13.6493 967.722 13.136C967.722 12.632 967.62 12.1887 967.414 11.806C967.209 11.414 966.929 11.1153 966.574 10.91C966.22 10.6953 965.818 10.588 965.37 10.588ZM982.201 18.862L980.437 16.944C980.007 17.056 979.559 17.112 979.093 17.112C978.169 17.112 977.333 16.8973 976.587 16.468C975.849 16.0293 975.266 15.4273 974.837 14.662C974.407 13.8873 974.193 13.0147 974.193 12.044C974.193 11.0733 974.407 10.2053 974.837 9.44C975.266 8.66533 975.849 8.06333 976.587 7.634C977.333 7.20467 978.169 6.99 979.093 6.99C980.007 6.99 980.833 7.20467 981.571 7.634C982.317 8.06333 982.901 8.66533 983.321 9.44C983.75 10.2053 983.965 11.0733 983.965 12.044C983.965 12.9773 983.764 13.822 983.363 14.578C982.961 15.334 982.415 15.9313 981.725 16.37L984.175 18.862H982.201ZM975.831 12.044C975.831 12.7627 975.966 13.3927 976.237 13.934C976.517 14.4753 976.904 14.8907 977.399 15.18C977.893 15.4693 978.458 15.614 979.093 15.614C979.718 15.614 980.273 15.4693 980.759 15.18C981.253 14.8907 981.636 14.4753 981.907 13.934C982.187 13.3927 982.327 12.7627 982.327 12.044C982.327 11.3253 982.187 10.6953 981.907 10.154C981.636 9.61267 981.253 9.19733 980.759 8.908C980.273 8.61867 979.718 8.474 979.093 8.474C978.458 8.474 977.893 8.61867 977.399 8.908C976.904 9.19733 976.517 9.61267 976.237 10.154C975.966 10.6953 975.831 11.3253 975.831 12.044ZM992.687 9.286V17H991.077V15.32C990.881 15.8893 990.541 16.3327 990.055 16.65C989.57 16.958 989.005 17.112 988.361 17.112C987.465 17.112 986.747 16.8227 986.205 16.244C985.664 15.6653 985.393 14.8393 985.393 13.766V9.286H986.989V13.598C986.989 14.298 987.167 14.8393 987.521 15.222C987.876 15.5953 988.361 15.782 988.977 15.782C989.612 15.782 990.121 15.5767 990.503 15.166C990.886 14.7553 991.077 14.158 991.077 13.374V9.286H992.687ZM1001.77 12.772C1001.77 13.0333 1001.75 13.262 1001.71 13.458H995.775C995.803 14.2513 996.022 14.8393 996.433 15.222C996.843 15.6047 997.352 15.796 997.959 15.796C998.491 15.796 998.939 15.6607 999.303 15.39C999.676 15.1193 999.905 14.76 999.989 14.312H1001.7C1001.59 14.8533 1001.38 15.334 1001.05 15.754C1000.73 16.174 1000.3 16.5053 999.779 16.748C999.256 16.9813 998.673 17.098 998.029 17.098C997.282 17.098 996.619 16.9393 996.041 16.622C995.471 16.3047 995.023 15.8473 994.697 15.25C994.37 14.6527 994.207 13.948 994.207 13.136C994.207 12.3333 994.37 11.6333 994.697 11.036C995.023 10.4387 995.471 9.98133 996.041 9.664C996.619 9.34667 997.282 9.188 998.029 9.188C998.785 9.188 999.443 9.34667 1000 9.664C1000.57 9.972 1001.01 10.4013 1001.3 10.952C1001.61 11.4933 1001.77 12.1 1001.77 12.772ZM1000.16 12.73C1000.18 12.226 1000.09 11.806 999.891 11.47C999.704 11.1247 999.443 10.8727 999.107 10.714C998.78 10.546 998.421 10.462 998.029 10.462C997.403 10.462 996.881 10.6533 996.461 11.036C996.041 11.4187 995.812 11.9833 995.775 12.73H1000.16ZM1006.47 15.348L1008.66 9.286H1010.36L1007.42 17H1005.49L1002.55 9.286H1004.26L1006.47 15.348ZM1018.71 12.772C1018.71 13.0333 1018.69 13.262 1018.65 13.458H1012.71C1012.74 14.2513 1012.96 14.8393 1013.37 15.222C1013.78 15.6047 1014.29 15.796 1014.9 15.796C1015.43 15.796 1015.88 15.6607 1016.24 15.39C1016.62 15.1193 1016.84 14.76 1016.93 14.312H1018.64C1018.53 14.8533 1018.32 15.334 1017.99 15.754C1017.67 16.174 1017.24 16.5053 1016.72 16.748C1016.2 16.9813 1015.61 17.098 1014.97 17.098C1014.22 17.098 1013.56 16.9393 1012.98 16.622C1012.41 16.3047 1011.96 15.8473 1011.64 15.25C1011.31 14.6527 1011.15 13.948 1011.15 13.136C1011.15 12.3333 1011.31 11.6333 1011.64 11.036C1011.96 10.4387 1012.41 9.98133 1012.98 9.664C1013.56 9.34667 1014.22 9.188 1014.97 9.188C1015.72 9.188 1016.38 9.34667 1016.94 9.664C1017.51 9.972 1017.95 10.4013 1018.24 10.952C1018.55 11.4933 1018.71 12.1 1018.71 12.772ZM1017.1 12.73C1017.11 12.226 1017.03 11.806 1016.83 11.47C1016.64 11.1247 1016.38 10.8727 1016.05 10.714C1015.72 10.546 1015.36 10.462 1014.97 10.462C1014.34 10.462 1013.82 10.6533 1013.4 11.036C1012.98 11.4187 1012.75 11.9833 1012.71 12.73H1017.1ZM1023.34 9.188C1024.04 9.188 1024.64 9.36067 1025.13 9.706C1025.63 10.0513 1025.97 10.5087 1026.17 11.078V6.64H1027.78V17H1026.17V15.208C1025.97 15.7773 1025.63 16.2347 1025.13 16.58C1024.64 16.9253 1024.04 17.098 1023.34 17.098C1022.67 17.098 1022.07 16.9393 1021.54 16.622C1021.01 16.3047 1020.6 15.8473 1020.3 15.25C1020 14.6527 1019.86 13.948 1019.86 13.136C1019.86 12.3333 1020 11.6333 1020.3 11.036C1020.6 10.4387 1021.01 9.98133 1021.54 9.664C1022.07 9.34667 1022.67 9.188 1023.34 9.188ZM1023.83 10.588C1023.12 10.588 1022.55 10.8167 1022.12 11.274C1021.7 11.722 1021.49 12.3427 1021.49 13.136C1021.49 13.9293 1021.7 14.5547 1022.12 15.012C1022.55 15.46 1023.12 15.684 1023.83 15.684C1024.28 15.684 1024.68 15.5813 1025.04 15.376C1025.39 15.1613 1025.67 14.8627 1025.88 14.48C1026.08 14.0973 1026.18 13.6493 1026.18 13.136C1026.18 12.632 1026.08 12.1887 1025.88 11.806C1025.67 11.414 1025.39 11.1153 1025.04 10.91C1024.68 10.6953 1024.28 10.588 1023.83 10.588ZM1033.22 9.188C1033.97 9.188 1034.64 9.34667 1035.24 9.664C1035.84 9.98133 1036.3 10.4387 1036.64 11.036C1036.97 11.6333 1037.14 12.3333 1037.14 13.136C1037.14 13.948 1036.97 14.6527 1036.64 15.25C1036.3 15.8473 1035.84 16.3047 1035.24 16.622C1034.64 16.9393 1033.97 17.098 1033.22 17.098C1032.48 17.098 1031.8 16.9393 1031.21 16.622C1030.62 16.3047 1030.15 15.8473 1029.81 15.25C1029.47 14.6433 1029.3 13.9387 1029.3 13.136C1029.3 12.3333 1029.47 11.6333 1029.81 11.036C1030.15 10.4387 1030.62 9.98133 1031.21 9.664C1031.8 9.34667 1032.48 9.188 1033.22 9.188ZM1033.22 10.574C1032.81 10.574 1032.43 10.6673 1032.09 10.854C1031.74 11.0407 1031.46 11.33 1031.25 11.722C1031.04 12.1047 1030.94 12.576 1030.94 13.136C1030.94 13.7053 1031.04 14.1813 1031.25 14.564C1031.46 14.9467 1031.74 15.2313 1032.09 15.418C1032.43 15.6047 1032.81 15.698 1033.22 15.698C1033.63 15.698 1034.01 15.6047 1034.36 15.418C1034.7 15.2313 1034.98 14.9467 1035.18 14.564C1035.4 14.1813 1035.5 13.7053 1035.5 13.136C1035.5 12.576 1035.4 12.1047 1035.18 11.722C1034.98 11.33 1034.7 11.0407 1034.36 10.854C1034.01 10.6673 1033.63 10.574 1033.22 10.574ZM1043.32 11.47V13.234H1041.51V11.47H1043.32ZM1053.28 7.116V14.284C1053.28 15.1707 1053.03 15.8613 1052.53 16.356C1052.04 16.8507 1051.35 17.098 1050.48 17.098C1049.52 17.098 1048.78 16.8227 1048.24 16.272C1047.7 15.7213 1047.42 14.942 1047.42 13.934H1049.01C1049.01 14.4753 1049.12 14.8953 1049.34 15.194C1049.58 15.4927 1049.93 15.642 1050.41 15.642C1050.85 15.642 1051.17 15.516 1051.37 15.264C1051.58 15.012 1051.68 14.6853 1051.68 14.284V7.116H1053.28ZM1062.25 9.286V17H1060.64V15.32C1060.44 15.8893 1060.1 16.3327 1059.62 16.65C1059.13 16.958 1058.57 17.112 1057.92 17.112C1057.03 17.112 1056.31 16.8227 1055.77 16.244C1055.23 15.6653 1054.96 14.8393 1054.96 13.766V9.286H1056.55V13.598C1056.55 14.298 1056.73 14.8393 1057.08 15.222C1057.44 15.5953 1057.92 15.782 1058.54 15.782C1059.17 15.782 1059.68 15.5767 1060.07 15.166C1060.45 14.7553 1060.64 14.158 1060.64 13.374V9.286H1062.25ZM1067.26 9.188C1067.96 9.188 1068.55 9.36067 1069.05 9.706C1069.54 10.0513 1069.89 10.5087 1070.1 11.078V9.286H1071.69V17H1070.1V15.208C1069.89 15.7773 1069.54 16.2347 1069.05 16.58C1068.55 16.9253 1067.96 17.098 1067.26 17.098C1066.58 17.098 1065.98 16.9393 1065.45 16.622C1064.93 16.3047 1064.52 15.8473 1064.22 15.25C1063.92 14.6527 1063.77 13.948 1063.77 13.136C1063.77 12.3333 1063.92 11.6333 1064.22 11.036C1064.52 10.4387 1064.93 9.98133 1065.45 9.664C1065.98 9.34667 1066.58 9.188 1067.26 9.188ZM1067.75 10.588C1067.04 10.588 1066.47 10.8167 1066.04 11.274C1065.62 11.722 1065.41 12.3427 1065.41 13.136C1065.41 13.9293 1065.62 14.5547 1066.04 15.012C1066.47 15.46 1067.04 15.684 1067.75 15.684C1068.19 15.684 1068.59 15.5813 1068.95 15.376C1069.3 15.1613 1069.58 14.8627 1069.79 14.48C1069.99 14.0973 1070.1 13.6493 1070.1 13.136C1070.1 12.632 1069.99 12.1887 1069.79 11.806C1069.58 11.414 1069.3 11.1153 1068.95 10.91C1068.59 10.6953 1068.19 10.588 1067.75 10.588ZM1077.92 9.16C1078.82 9.16 1079.54 9.44933 1080.08 10.028C1080.62 10.6067 1080.89 11.4327 1080.89 12.506V17H1079.29V12.674C1079.29 11.9833 1079.12 11.4513 1078.76 11.078C1078.41 10.6953 1077.92 10.504 1077.3 10.504C1076.67 10.504 1076.16 10.7093 1075.78 11.12C1075.4 11.5213 1075.2 12.114 1075.2 12.898V17H1073.61V9.286H1075.2V10.98C1075.41 10.4013 1075.76 9.95333 1076.24 9.636C1076.73 9.31867 1077.29 9.16 1077.92 9.16ZM1094.52 12.044C1094.52 13.0427 1094.31 13.9153 1093.9 14.662C1093.5 15.3993 1092.91 15.9733 1092.13 16.384C1091.35 16.7947 1090.42 17 1089.34 17H1086.04V7.116H1089.34C1090.42 7.116 1091.35 7.32133 1092.13 7.732C1092.91 8.13333 1093.5 8.70267 1093.9 9.44C1094.31 10.1773 1094.52 11.0453 1094.52 12.044ZM1089.21 15.558C1090.4 15.558 1091.31 15.25 1091.94 14.634C1092.58 14.018 1092.9 13.1547 1092.9 12.044C1092.9 10.9333 1092.58 10.07 1091.94 9.454C1091.31 8.838 1090.4 8.53 1089.21 8.53H1087.63V15.558H1089.21ZM1099.22 9.188C1099.92 9.188 1100.52 9.36067 1101.01 9.706C1101.51 10.0513 1101.86 10.5087 1102.06 11.078V9.286H1103.66V17H1102.06V15.208C1101.86 15.7773 1101.51 16.2347 1101.01 16.58C1100.52 16.9253 1099.92 17.098 1099.22 17.098C1098.55 17.098 1097.95 16.9393 1097.41 16.622C1096.89 16.3047 1096.48 15.8473 1096.18 15.25C1095.88 14.6527 1095.73 13.948 1095.73 13.136C1095.73 12.3333 1095.88 11.6333 1096.18 11.036C1096.48 10.4387 1096.89 9.98133 1097.41 9.664C1097.95 9.34667 1098.55 9.188 1099.22 9.188ZM1099.71 10.588C1099 10.588 1098.43 10.8167 1098 11.274C1097.58 11.722 1097.37 12.3427 1097.37 13.136C1097.37 13.9293 1097.58 14.5547 1098 15.012C1098.43 15.46 1099 15.684 1099.71 15.684C1100.16 15.684 1100.56 15.5813 1100.91 15.376C1101.27 15.1613 1101.55 14.8627 1101.75 14.48C1101.96 14.0973 1102.06 13.6493 1102.06 13.136C1102.06 12.632 1101.96 12.1887 1101.75 11.806C1101.55 11.414 1101.27 11.1153 1100.91 10.91C1100.56 10.6953 1100.16 10.588 1099.71 10.588ZM1108.74 15.348L1110.92 9.286H1112.63L1109.69 17H1107.76L1104.82 9.286H1106.53L1108.74 15.348ZM1113.58 7.046C1113.58 6.77533 1113.67 6.55133 1113.86 6.374C1114.05 6.19667 1114.29 6.108 1114.6 6.108C1114.91 6.108 1115.16 6.19667 1115.34 6.374C1115.54 6.55133 1115.64 6.77533 1115.64 7.046C1115.64 7.31667 1115.54 7.536 1115.34 7.704C1115.16 7.872 1114.91 7.956 1114.6 7.956C1114.29 7.956 1114.05 7.872 1113.86 7.704C1113.67 7.536 1113.58 7.31667 1113.58 7.046ZM1115.4 9.286V17H1113.8V9.286H1115.4ZM1120.43 9.188C1121.13 9.188 1121.72 9.36067 1122.22 9.706C1122.71 10.0513 1123.06 10.5087 1123.25 11.078V6.64H1124.86V17H1123.25V15.208C1123.06 15.7773 1122.71 16.2347 1122.22 16.58C1121.72 16.9253 1121.13 17.098 1120.43 17.098C1119.75 17.098 1119.15 16.9393 1118.62 16.622C1118.1 16.3047 1117.69 15.8473 1117.39 15.25C1117.09 14.6527 1116.94 13.948 1116.94 13.136C1116.94 12.3333 1117.09 11.6333 1117.39 11.036C1117.69 10.4387 1118.1 9.98133 1118.62 9.664C1119.15 9.34667 1119.75 9.188 1120.43 9.188ZM1120.92 10.588C1120.21 10.588 1119.64 10.8167 1119.21 11.274C1118.79 11.722 1118.58 12.3427 1118.58 13.136C1118.58 13.9293 1118.79 14.5547 1119.21 15.012C1119.64 15.46 1120.21 15.684 1120.92 15.684C1121.36 15.684 1121.76 15.5813 1122.12 15.376C1122.47 15.1613 1122.75 14.8627 1122.96 14.48C1123.16 14.0973 1123.27 13.6493 1123.27 13.136C1123.27 12.632 1123.16 12.1887 1122.96 11.806C1122.75 11.414 1122.47 11.1153 1122.12 10.91C1121.76 10.6953 1121.36 10.588 1120.92 10.588ZM1135.21 11.904C1135.81 12.0253 1136.29 12.31 1136.65 12.758C1137.03 13.206 1137.21 13.7287 1137.21 14.326C1137.21 15.1473 1136.94 15.8007 1136.39 16.286C1135.84 16.762 1135.04 17 1133.99 17H1130.06V7.116H1133.92C1134.91 7.116 1135.67 7.34 1136.19 7.788C1136.72 8.22667 1136.99 8.83333 1136.99 9.608C1136.99 10.2333 1136.83 10.742 1136.5 11.134C1136.17 11.5167 1135.74 11.7733 1135.21 11.904ZM1131.66 11.372H1133.63C1134.19 11.372 1134.61 11.2413 1134.9 10.98C1135.2 10.7187 1135.35 10.3547 1135.35 9.888C1135.35 9.43067 1135.2 9.07133 1134.9 8.81C1134.61 8.54867 1134.17 8.418 1133.57 8.418H1131.66V11.372ZM1133.67 15.684C1134.28 15.684 1134.75 15.5487 1135.07 15.278C1135.41 14.998 1135.58 14.6107 1135.58 14.116C1135.58 13.6213 1135.41 13.234 1135.07 12.954C1134.74 12.674 1134.26 12.534 1133.66 12.534H1131.66V15.684H1133.67ZM1140.31 10.798C1140.57 10.294 1140.94 9.89733 1141.43 9.608C1141.92 9.30933 1142.48 9.16 1143.11 9.16V10.896H1142.63C1141.93 10.896 1141.37 11.0687 1140.94 11.414C1140.52 11.75 1140.31 12.31 1140.31 13.094V17H1138.71V9.286H1140.31V10.798ZM1147.4 9.188C1148.1 9.188 1148.7 9.36067 1149.19 9.706C1149.69 10.0513 1150.04 10.5087 1150.24 11.078V9.286H1151.84V17H1150.24V15.208C1150.04 15.7773 1149.69 16.2347 1149.19 16.58C1148.7 16.9253 1148.1 17.098 1147.4 17.098C1146.73 17.098 1146.13 16.9393 1145.59 16.622C1145.07 16.3047 1144.66 15.8473 1144.36 15.25C1144.06 14.6527 1143.91 13.948 1143.91 13.136C1143.91 12.3333 1144.06 11.6333 1144.36 11.036C1144.66 10.4387 1145.07 9.98133 1145.59 9.664C1146.13 9.34667 1146.73 9.188 1147.4 9.188ZM1147.89 10.588C1147.18 10.588 1146.61 10.8167 1146.18 11.274C1145.76 11.722 1145.55 12.3427 1145.55 13.136C1145.55 13.9293 1145.76 14.5547 1146.18 15.012C1146.61 15.46 1147.18 15.684 1147.89 15.684C1148.34 15.684 1148.74 15.5813 1149.09 15.376C1149.45 15.1613 1149.73 14.8627 1149.93 14.48C1150.14 14.0973 1150.24 13.6493 1150.24 13.136C1150.24 12.632 1150.14 12.1887 1149.93 11.806C1149.73 11.414 1149.45 11.1153 1149.09 10.91C1148.74 10.6953 1148.34 10.588 1147.89 10.588ZM1156.92 15.348L1159.1 9.286H1160.81L1157.87 17H1155.94L1153 9.286H1154.71L1156.92 15.348ZM1165.51 9.188C1166.26 9.188 1166.93 9.34667 1167.53 9.664C1168.12 9.98133 1168.59 10.4387 1168.93 11.036C1169.26 11.6333 1169.43 12.3333 1169.43 13.136C1169.43 13.948 1169.26 14.6527 1168.93 15.25C1168.59 15.8473 1168.12 16.3047 1167.53 16.622C1166.93 16.9393 1166.26 17.098 1165.51 17.098C1164.76 17.098 1164.09 16.9393 1163.5 16.622C1162.91 16.3047 1162.44 15.8473 1162.1 15.25C1161.76 14.6433 1161.59 13.9387 1161.59 13.136C1161.59 12.3333 1161.76 11.6333 1162.1 11.036C1162.44 10.4387 1162.91 9.98133 1163.5 9.664C1164.09 9.34667 1164.76 9.188 1165.51 9.188ZM1165.51 10.574C1165.1 10.574 1164.72 10.6673 1164.38 10.854C1164.03 11.0407 1163.75 11.33 1163.54 11.722C1163.33 12.1047 1163.23 12.576 1163.23 13.136C1163.23 13.7053 1163.33 14.1813 1163.54 14.564C1163.75 14.9467 1164.03 15.2313 1164.38 15.418C1164.72 15.6047 1165.1 15.698 1165.51 15.698C1165.92 15.698 1166.3 15.6047 1166.65 15.418C1166.99 15.2313 1167.27 14.9467 1167.47 14.564C1167.69 14.1813 1167.79 13.7053 1167.79 13.136C1167.79 12.576 1167.69 12.1047 1167.47 11.722C1167.27 11.33 1166.99 11.0407 1166.65 10.854C1166.3 10.6673 1165.92 10.574 1165.51 10.574Z" fill="white"/>
</svg>
