<svg width="37" height="34" viewBox="0 0 37 34" fill="none" xmlns="http://www.w3.org/2000/svg">
<path fill-rule="evenodd" clip-rule="evenodd" d="M23.4855 0.000239827C24.0945 0.0110949 24.6364 0.389123 24.857 0.956876L36.8986 31.9569C37.1986 32.7291 36.8157 33.5983 36.0435 33.8982C35.2713 34.1982 34.4021 33.8153 34.1022 33.0431L23.3881 5.46093L13.8575 27.622C13.6187 28.1775 13.0696 28.5352 12.465 28.5293C11.8604 28.5235 11.3184 28.1552 11.0904 27.5952L7.92371 19.8192L2.90258 33.0328C2.60831 33.8072 1.74198 34.1964 0.967583 33.9022C0.193182 33.6079 -0.196041 32.7416 0.0982285 31.9672L6.47323 15.1907C6.69218 14.6145 7.24135 14.2309 7.85772 14.2236C8.47408 14.2164 9.03214 14.5869 9.26463 15.1578L12.5173 23.145L22.0808 0.907391C22.3214 0.347858 22.8765 -0.0106154 23.4855 0.000239827Z" fill="white"/>
</svg>
