<svg width="253" height="190" viewBox="0 0 253 190" fill="none" xmlns="http://www.w3.org/2000/svg">
<path d="M32.1179 174.401V184.72C28.8455 187.429 24.7474 188.939 20.5013 189C13.9685 189 8.90845 185.671 5.34507 178.966C1.78169 172.261 0 162.751 0 150.339C0 137.928 1.78169 128.227 5.36883 121.261C8.95596 114.294 14.0635 110.799 20.7151 110.799C24.5404 111.023 28.2088 112.398 31.239 114.746V124.661C28.7273 121.837 25.1985 120.127 21.4278 119.905C17.516 119.905 14.6732 122.212 12.8994 126.824C11.1177 131.437 10.2388 139.141 10.2388 149.888C10.2388 160.635 11.1415 168.196 12.9232 172.856C14.7049 177.516 17.6744 179.989 21.7604 179.989C24.5952 179.909 28.0478 178.047 32.1179 174.401Z" fill="white"/>
<path d="M40.3853 84.6922H50.1727V141.922C50.1727 149.182 52.5483 152.804 57.2994 152.788C58.3217 152.799 59.3304 152.555 60.2346 152.077C61.1388 151.6 61.9099 150.904 62.4782 150.054C63.9399 147.77 64.6387 145.081 64.4737 142.374V84.6922H74.2849V141.304C74.2849 147.993 72.5903 153.105 69.2011 156.64C67.7018 158.304 65.8695 159.634 63.8231 160.544C61.7768 161.453 59.5622 161.922 57.3232 161.918C55.0168 161.963 52.7296 161.491 50.6292 160.537C48.5287 159.582 46.6682 158.17 45.1839 156.402C41.8805 152.405 40.1863 147.318 40.4328 142.136L40.3853 84.6922Z" fill="white"/>
<path d="M106.688 84.4544L117.972 56.4931H126.381V132.721H116.879L117.497 77.6068L117.212 77.3928L107.709 102.453H105.927L96.4251 77.3928L96.1401 77.6068L96.7577 132.721H87.2554V56.4931H95.665L106.688 84.4544Z" fill="white"/>
<path d="M139.518 132.721V56.4932H151.158C153.785 56.4247 156.398 56.8815 158.846 57.8368C161.293 58.7922 163.526 60.2269 165.412 62.0569C167.227 63.7535 168.671 65.8086 169.653 68.0922C170.634 70.3758 171.131 72.8384 171.113 75.3242C171.113 82.2194 167.811 87.688 161.207 91.7776C164.875 93.3531 167.965 96.0287 170.05 99.4355C172.134 102.842 173.112 106.813 172.848 110.799C172.956 113.735 172.452 116.661 171.368 119.392C170.284 122.122 168.644 124.597 166.552 126.658C162.347 130.747 156.408 132.792 148.688 132.792L139.518 132.721ZM149.329 88.8055H150.208C151.72 88.883 153.231 88.6367 154.64 88.0832C156.05 87.5297 157.325 86.6817 158.38 85.5957C160.537 83.2434 161.673 80.1308 161.54 76.941C161.707 75.4222 161.533 73.8852 161.03 72.4425C160.527 70.9998 159.708 69.6879 158.633 68.6029C157.558 67.5179 156.254 66.6872 154.817 66.1717C153.38 65.6562 151.846 65.4688 150.327 65.6234H149.448L149.329 88.8055ZM149.329 123.591H151.063C152.688 123.676 154.312 123.427 155.837 122.859C157.361 122.29 158.752 121.414 159.924 120.286C161.039 119.04 161.896 117.585 162.447 116.006C162.997 114.427 163.23 112.754 163.131 111.084C163.293 107.635 162.176 104.249 159.996 101.574C158.871 100.34 157.485 99.3738 155.94 98.7445C154.395 98.1151 152.729 97.8388 151.063 97.9357H149.329V123.591Z" fill="white"/>
<path d="M183.396 161.419V85.1915H191.591C194.35 85.0048 197.117 85.4229 199.697 86.4167C202.278 87.4105 204.611 88.9561 206.534 90.9454C210.128 95.2304 211.969 100.717 211.689 106.305C211.882 109.478 211.255 112.648 209.87 115.509C208.484 118.37 206.386 120.825 203.778 122.64C207.864 125.54 211.332 133.252 214.183 145.774L217.699 161.419H207.436L204.491 148.271C202.376 139.069 200.547 133.149 199.003 130.771C198.495 129.685 197.667 128.78 196.632 128.177C195.596 127.574 194.401 127.301 193.207 127.395V161.419H183.396ZM193.207 118.17H193.658C199.146 118.17 201.878 114.342 201.878 106.638C201.878 98.4588 199.003 94.3692 193.207 94.3217V118.17Z" fill="white"/>
<path d="M224.944 188.001V111.75H252.05V120.88H234.732V143.682H250.601V152.812H234.732V178.966H253V188.096L224.944 188.001Z" fill="white"/>
<path d="M106.44 44.7237V0.261536H112.141V39.3978H123.14V44.7237H106.44Z" fill="white"/>
<path d="M123.782 44.7237L132.168 0H138.107L146.421 44.7237H140.886L139.294 34.8802H131.051L129.293 44.7237H123.782ZM131.906 29.5543H138.297L135.185 10.9134H135.018L131.906 29.5543Z" fill="white"/>
<path fill-rule="evenodd" clip-rule="evenodd" d="M130.985 155.5C131.594 155.511 132.136 155.889 132.356 156.457L144.398 187.457C144.698 188.229 144.315 189.098 143.543 189.398C142.771 189.698 141.902 189.315 141.602 188.543L130.888 160.961L121.357 183.122C121.118 183.677 120.569 184.035 119.965 184.029C119.36 184.023 118.818 183.655 118.59 183.095L115.423 175.319L110.402 188.533C110.108 189.307 109.241 189.696 108.467 189.402C107.693 189.108 107.303 188.242 107.598 187.467L113.973 170.691C114.192 170.115 114.741 169.731 115.357 169.724C115.974 169.716 116.532 170.087 116.764 170.658L120.017 178.645L129.58 156.407C129.821 155.848 130.376 155.489 130.985 155.5Z" fill="white"/>
</svg>
